<svg width="22" height="18" viewBox="0 0 22 18" fill="none" xmlns="http://www.w3.org/2000/svg">
<path d="M14.75 3.03231C14.7499 3.63402 14.5119 4.2113 14.088 4.63831C13.112 5.62231 12.165 6.64831 11.152 7.59631C11.0389 7.69934 10.8906 7.75502 10.7376 7.75186C10.5846 7.74869 10.4387 7.68693 10.33 7.57931L7.412 4.63931C6.98784 4.21203 6.7498 3.63437 6.7498 3.03231C6.7498 2.43024 6.98784 1.85259 7.412 1.42531C7.62365 1.21209 7.87541 1.04286 8.15276 0.927383C8.43011 0.811902 8.72757 0.752449 9.028 0.752449C9.32843 0.752449 9.62589 0.811902 9.90324 0.927383C10.1806 1.04286 10.4323 1.21209 10.644 1.42531L10.75 1.53231L10.856 1.42531C11.1737 1.10417 11.5798 0.884838 12.0225 0.79523C12.4653 0.705622 12.9247 0.749792 13.3423 0.922117C13.7598 1.09444 14.1167 1.38713 14.3674 1.76291C14.6181 2.13869 14.7513 2.58058 14.75 3.03231V3.03231Z" stroke="#008F76" stroke-width="1.5" stroke-linejoin="round"/>
<path d="M16.75 16.7523L20.574 12.9283C20.6866 12.8159 20.7499 12.6634 20.75 12.5043V7.25232C20.75 6.85449 20.592 6.47296 20.3107 6.19166C20.0294 5.91035 19.6478 5.75232 19.25 5.75232V5.75232C18.8522 5.75232 18.4706 5.91035 18.1893 6.19166C17.908 6.47296 17.75 6.85449 17.75 7.25232V11.7523" stroke="#008F76" stroke-width="1.5" stroke-linecap="round" stroke-linejoin="round"/>
<path d="M16.75 12.7523L17.608 11.8943C17.6531 11.8493 17.6888 11.7958 17.7132 11.737C17.7376 11.6781 17.7501 11.615 17.75 11.5513C17.7499 11.4614 17.7247 11.3733 17.6774 11.2968C17.6301 11.2204 17.5624 11.1586 17.482 11.1183L17.039 10.8973C16.6637 10.7097 16.2389 10.6448 15.8247 10.7119C15.4104 10.779 15.0278 10.9747 14.731 11.2713L13.836 12.1663C13.4609 12.5413 13.2501 13.0499 13.25 13.5803V16.7523M4.75 16.7523L0.926 12.9283C0.813446 12.8159 0.75014 12.6634 0.75 12.5043V7.25232C0.75 6.85449 0.908035 6.47296 1.18934 6.19166C1.47064 5.91035 1.85218 5.75232 2.25 5.75232V5.75232C2.64782 5.75232 3.02936 5.91035 3.31066 6.19166C3.59196 6.47296 3.75 6.85449 3.75 7.25232V11.7523" stroke="#008F76" stroke-width="1.5" stroke-linecap="round" stroke-linejoin="round"/>
<path d="M4.75 12.7523L3.892 11.8943C3.84697 11.8493 3.81125 11.7958 3.78688 11.7369C3.76252 11.6781 3.74999 11.615 3.75 11.5513V11.5513C3.75 11.3683 3.854 11.2013 4.018 11.1183L4.461 10.8973C4.83631 10.7096 5.26114 10.6448 5.67534 10.7119C6.08955 10.779 6.47216 10.9747 6.769 11.2713L7.664 12.1663C8.0391 12.5413 8.24989 13.0499 8.25 13.5803V16.7523" stroke="#008F76" stroke-width="1.5" stroke-linecap="round" stroke-linejoin="round"/>
</svg>
